<svg width="30" height="30" viewBox="0 0 30 30" fill="none" xmlns="http://www.w3.org/2000/svg">
<path d="M9.11376 26.03L2.50001 27.5L3.97001 20.8862C3.00193 19.0755 2.49692 17.0533 2.50001 15C2.50001 8.09625 8.09626 2.5 15 2.5C21.9038 2.5 27.5 8.09625 27.5 15C27.5 21.9037 21.9038 27.5 15 27.5C12.9467 27.5031 10.9245 26.9981 9.11376 26.03ZM9.47626 23.3888L10.2925 23.8263C11.7407 24.6002 13.358 25.0034 15 25C16.9778 25 18.9112 24.4135 20.5557 23.3147C22.2002 22.2159 23.4819 20.6541 24.2388 18.8268C24.9957 16.9996 25.1937 14.9889 24.8079 13.0491C24.422 11.1093 23.4696 9.32746 22.0711 7.92893C20.6726 6.53041 18.8907 5.578 16.9509 5.19215C15.0111 4.8063 13.0004 5.00433 11.1732 5.7612C9.34592 6.51808 7.78413 7.79981 6.68532 9.4443C5.5865 11.0888 5.00001 13.0222 5.00001 15C5.00001 16.6675 5.40626 18.2725 6.17501 19.7075L6.61126 20.5238L5.79251 24.2075L9.47626 23.3888Z" fill="#09121F"/>
</svg>
