<svg width="30" height="30" viewBox="0 0 30 30" fill="none" xmlns="http://www.w3.org/2000/svg">
<path d="M25 27.5H5V25C5 23.3424 5.65848 21.7527 6.83058 20.5806C8.00269 19.4085 9.5924 18.75 11.25 18.75H18.75C20.4076 18.75 21.9973 19.4085 23.1694 20.5806C24.3415 21.7527 25 23.3424 25 25V27.5ZM15 16.25C14.0151 16.25 13.0398 16.056 12.1299 15.6791C11.2199 15.3022 10.3931 14.7497 9.6967 14.0533C9.00026 13.3569 8.44781 12.5301 8.0709 11.6201C7.69399 10.7102 7.5 9.73491 7.5 8.75C7.5 7.76509 7.69399 6.78982 8.0709 5.87987C8.44781 4.96993 9.00026 4.14314 9.6967 3.4467C10.3931 2.75026 11.2199 2.19781 12.1299 1.8209C13.0398 1.44399 14.0151 1.25 15 1.25C16.9891 1.25 18.8968 2.04018 20.3033 3.4467C21.7098 4.85322 22.5 6.76088 22.5 8.75C22.5 10.7391 21.7098 12.6468 20.3033 14.0533C18.8968 15.4598 16.9891 16.25 15 16.25Z" fill="#09121F"/>
</svg>
